<?xml version="1.0" encoding="utf-8"?>
<!-- Generator: Adobe Illustrator 19.0.0, SVG Export Plug-In . SVG Version: 6.00 Build 0)  -->
<!DOCTYPE svg PUBLIC "-//W3C//DTD SVG 1.1//EN" "http://www.w3.org/Graphics/SVG/1.1/DTD/svg11.dtd">
<svg version="1.1" id="Layer_1" xmlns="http://www.w3.org/2000/svg" xmlns:xlink="http://www.w3.org/1999/xlink" x="0px" y="0px"
	 viewBox="0 0 1126 236" enable-background="new 0 0 1126 236" xml:space="preserve">
<g id="XMLID_2_">
	<path id="XMLID_33_" fill="#F9E3D2" d="M543.9,32.5c15.4-8,26.7-17.8,36.5-14.9c11.2,3.3,10.2,11.5,3,20.2
		c-6.2,7.4-4.3,29.1-2.5,39.1c2.5,13.9,3.6,15.8,15.3,28c7.2,7.5,15.3,20.9,18.8,45.5c2.2,15.7-2.2,32.5-15.5,52.2
		c-6.4,9.5-18.9,16.5-29.6,17.6c-16,1.6-32.9,0-49.2,0c-17.9,0-30.8-6.2-38.7-23.5c-9.5-20.9-15-43.7-5.7-67.1
		c8.3-21,11.2-22.1,18.2-31.4c4.5-5.9,10.5-13.6,10.4-21.1c-0.3-18.1-9-19.6,2.3-29.8C517.3,37.8,532.2,38.6,543.9,32.5z"/>
	<path id="XMLID_32_" fill="#F9E3D2" d="M504.8,93c1.5-8.3-17.1-18.9-24.5-21.2c-12.6-3.8-25.2,0.5-35.8,7.8
		c-9.6,6.6-14.1,17.4-13.9,28.7c0.2,12.2,10.8,20.9,19.9,27.9c9.6,7.3,20,13.6,30,20.3c3.1-4.6,3.5-10.8,3-16.2
		c-15.4-1.3-43.3-22.9-39.7-40.5c1.8-8.8,13.6-15.3,21.9-16.4c10.9-1.4,19.2,5,27.2,11.9c2.9,2.6,6.8,7.2,8.6,9.1L504.8,93z"/>
	<path id="XMLID_31_" fill="#DC7676" d="M577.8,89.5c0,0,8.6,19,13.9,27.3c6.1,9.6,10.3,18.5,12.1,29.6c3.3,20.4-4.7,50.3-23.9,61.7
		c-9.9,5.9-20.3,0.6-31.8,0c-12.2-0.6-16.6,0.4-28.5,2.3c-12.6,2.1-23.1-6.1-28.6-16.7c-4.9-9.4-6.3-14.7-7.7-25.4
		c-2.2-15.8,0.3-30.1,3.6-39.7c2.2-6.4,8.6-16.7,12-22.6c4.8-8.4,10.8-17.6,10.8-17.6c5.5-3.4,14.4-0.2,20.1,1c8,1.7,16,4,24.2,4.6
		C556.7,94.1,567.1,95.8,577.8,89.5z"/>
	<g id="XMLID_20_">
		<path id="XMLID_30_" fill="#F79029" d="M505.6,153.6c1.9-1.4,4-2.5,6.1-3.3c2.2-0.8,4.5-1.3,6.7-1.6c2.3-0.2,4.6-0.1,6.9,0.2
			c2.3,0.4,4.5,1,6.6,1.9c2.1,0.9,4,2.3,5.8,3.8c1.7,1.4,3.3,3.1,4.7,5c1.4,1.9,2.5,3.9,3.3,6c0.8,2.2,1.3,4.4,1.5,6.7
			c0.2,2.3,0.2,4.6-0.1,6.9c-0.4,2.3-1.1,4.4-2,6.6c-0.9,2.1-2.1,4.1-3.6,5.9c-1.4,1.7-3,3.5-4.9,4.8c-1.9,1.4-4,2.5-6.1,3.3
			c-2.2,0.8-4.5,1.2-6.7,1.4c-2.3,0.2-4.6,0.3-6.9-0.1c-2.3-0.4-4.5-1.1-6.6-2c-2.1-0.9-4.1-2-6-3.5c-1.8-1.4-3.3-3.1-4.7-5.1
			c-1.4-1.9-2.6-3.9-3.4-6c-0.8-2.2-1.2-4.5-1.5-6.7c-0.2-2.3-0.1-4.6,0.3-6.9c0.4-2.3,0.8-4.6,1.7-6.7c0.9-2.1,2.3-4,3.7-5.8
			C502.1,156.7,503.7,155,505.6,153.6z"/>
		<path id="XMLID_29_" fill="#FFEFD5" d="M506.9,155.4c2.1-1.5,4.5-2.4,6.9-3.2c2.4-0.8,4.9-1.1,7.4-1.1c2.5,0,5.1,0,7.5,0.7
			c2.4,0.8,4.9,1.7,6.9,3.2c2,1.5,3.6,3.6,5.1,5.7c1.5,2.1,2.6,4.4,3.4,6.8c0.8,2.4,0.8,4.9,0.7,7.5c0,2.5,0.4,5.2-0.4,7.6
			c-0.8,2.4-1.9,4.8-3.4,6.9c-1.5,2-3.6,3.6-5.7,5.1c-2.1,1.5-4.5,2.4-6.8,3.1c-2.4,0.8-4.9,1.4-7.4,1.4c-2.5,0-5.1-0.2-7.5-1
			c-2.4-0.8-4.9-1.7-6.9-3.2c-2-1.5-4-3.3-5.5-5.4c-1.5-2.1-2-4.8-2.8-7.1c-0.8-2.4-1.3-4.9-1.3-7.4c0-2.5,0.2-5.1,1-7.5
			c0.8-2.4,2.3-4.5,3.8-6.5C503.2,159,504.8,156.9,506.9,155.4z"/>
		<path id="XMLID_28_" fill="#FBAE25" d="M503.6,186.1c1.8-0.3,14.7-8.9,14.6-10.6c0,0-15.8-2.8-17.5-2.4
			C498.9,173.4,501.7,186.5,503.6,186.1z"/>
		<path id="XMLID_27_" fill="#FBAE25" d="M519.2,174.4c-1.5-2.8-8.3-15.6-10-16.1c-1.7-0.6-9.9,10.5-8.5,11.8
			C502.1,171.4,520,176,519.2,174.4z"/>
		<path id="XMLID_26_" fill="#FBAE25" d="M531.4,192.2c-0.1-3-8.2-14.8-10.2-14.4c-2,0.3-2.8,15.3-1.6,17.9
			C520.5,197.4,531.5,195.3,531.4,192.2z"/>
		<path id="XMLID_25_" fill="#FBAE25" d="M516,194.3c1.4-1.2,4.2-15.7,3.2-16.3c-1-0.6-13.6,8.7-14.3,10.5
			C504.3,190.3,513.6,196.4,516,194.3z"/>
		<path id="XMLID_24_" fill="#FBAE25" d="M539.3,166.3c-6.2,2.7-16.1,7.4-15.8,8.6c0.2,0.7,14.5,2.7,17.3,3.6
			C544,179.5,541.7,165.2,539.3,166.3z"/>
		<path id="XMLID_23_" fill="#FBAE25" d="M523.1,176.4c-0.9,1.5,7.9,10.3,11.2,14.2c1.2,1.4,8.5-6.5,6.9-9
			C539.4,178.8,524,174.9,523.1,176.4z"/>
		<path id="XMLID_22_" fill="#FBAE25" d="M511.6,156.8c2.1,4.7,7.1,16.8,9.1,17.2c2,0.4,4.4-16.7,2.6-19
			C521.5,152.6,510.3,154,511.6,156.8z"/>
		<path id="XMLID_21_" fill="#FBAE25" d="M523.3,171.8c-0.3,1.2-0.7,1.8,0.6,1c1.4-0.8,9.4-5.1,11.2-6c1.8-0.9,5.2-3,1.9-6.7
			c-3.2-3.7-6.8-4.8-9.1-5.1c-2.3-0.3-2.4,2.3-2.6,4.2C525.2,161,523.9,169.5,523.3,171.8z"/>
	</g>
	<g id="XMLID_9_">
		<path id="XMLID_19_" fill="#F79029" d="M585.3,120.2c0.8,2,1.4,4,1.6,6c0.3,2.1,0.2,4.2,0,6.2c-0.3,2.1-0.9,4.1-1.7,6
			c-0.8,1.9-1.8,3.8-3.1,5.4c-1.3,1.6-2.9,3-4.5,4.3c-1.6,1.2-3.4,2.2-5.4,3c-2,0.8-4,1.4-6,1.7c-2.1,0.3-4.2,0.2-6.2-0.1
			c-2.1-0.3-4.1-0.8-6-1.6c-1.9-0.8-3.7-1.9-5.3-3.2c-1.6-1.3-3.1-2.7-4.4-4.4c-1.2-1.6-2.4-3.4-3.2-5.3c-0.8-2-1.3-4-1.6-6
			c-0.3-2.1-0.1-4.2,0.2-6.2c0.3-2.1,0.7-4.1,1.5-6c0.8-1.9,1.9-3.7,3.2-5.3c1.3-1.6,2.6-3.2,4.3-4.5c1.6-1.2,3.5-2.2,5.4-3
			c2-0.8,4-1.4,6-1.7c2.1-0.3,4.2-0.1,6.2,0.1c2.1,0.3,4,0.9,6,1.7c1.9,0.8,3.8,1.7,5.5,2.9c1.6,1.3,3,2.8,4.3,4.5
			C583.3,116.5,584.5,118.2,585.3,120.2z"/>
		<path id="XMLID_18_" fill="#FFEFD5" d="M583.4,120.9c0.9,2.2,1.2,4.5,1.3,6.7c0.2,2.3-0.1,4.5-0.6,6.7c-0.5,2.2-1,4.5-2.2,6.4
			c-1.2,1.9-2.5,3.9-4.3,5.4c-1.7,1.4-3.9,2.4-6.1,3.3c-2.2,0.9-4.4,1.4-6.6,1.6c-2.3,0.2-4.5-0.4-6.7-0.9c-2.2-0.5-4.6-0.8-6.6-2
			c-1.9-1.2-3.8-2.7-5.3-4.5c-1.4-1.7-2.4-3.9-3.3-6.1c-0.9-2.2-1.1-4.4-1.3-6.7c-0.2-2.3-0.2-4.6,0.3-6.8c0.5-2.2,1.3-4.4,2.5-6.4
			c1.2-1.9,2.5-3.9,4.3-5.4c1.7-1.4,3.7-2.8,5.9-3.7c2.2-0.9,4.6-0.8,6.8-0.9c2.3-0.2,4.6-0.1,6.8,0.4c2.2,0.5,4.4,1.3,6.4,2.5
			c1.9,1.2,3.4,3,4.9,4.7C581,117,582.5,118.7,583.4,120.9z"/>
		<path id="XMLID_17_" fill="#FBAE25" d="M557.1,111.5c-0.1,1.7,4.7,14.8,6.2,15.1c0,0,5.8-13.3,5.9-14.9
			C569.3,110.1,557.2,109.8,557.1,111.5z"/>
		<path id="XMLID_16_" fill="#FBAE25" d="M564.1,127.7c2.8-0.7,15.4-4,16.3-5.4c0.9-1.4-7.2-10.9-8.6-9.9
			C570.4,113.3,562.6,128,564.1,127.7z"/>
		<path id="XMLID_15_" fill="#FBAE25" d="M545.9,134.6c2.7,0.6,14.7-4.1,14.8-5.9c0.2-1.8-12.9-5.7-15.4-5.2
			C543.6,124,543.1,134,545.9,134.6z"/>
		<path id="XMLID_14_" fill="#FBAE25" d="M547.3,120.7c0.7,1.4,12.9,7,13.6,6.3c0.7-0.7-4.7-13.8-6.2-14.7
			C553.3,111.2,546,118.1,547.3,120.7z"/>
		<path id="XMLID_13_" fill="#FBAE25" d="M567,147c-1.1-6-3.1-15.7-4.2-15.7c-0.6,0-5.5,12.2-6.8,14.4
			C554.4,148.3,567.4,149.4,567,147z"/>
		<path id="XMLID_12_" fill="#FBAE25" d="M561.5,130.7c-1.1-1.1-10.7,4.8-14.8,6.8c-1.5,0.8,3.9,8.9,6.4,8
			C556,144.5,562.7,131.8,561.5,130.7z"/>
		<path id="XMLID_11_" fill="#FBAE25" d="M581.1,124.7c-4.5,0.9-16.2,2.7-17,4.4c-0.8,1.7,13.7,7.4,16.1,6.3
			C582.7,134.3,583.9,124.2,581.1,124.7z"/>
		<path id="XMLID_10_" fill="#FBAE25" d="M565.5,131.9c-1-0.5-1.4-1-1,0.4c0.4,1.4,2.5,9.3,2.9,11.1c0.4,1.7,1.5,5.2,5.4,3.1
			c3.9-2.1,5.7-5,6.4-6.9c0.7-1.9-1.6-2.6-3.1-3.1C574.6,135.8,567.4,132.8,565.5,131.9z"/>
	</g>
	<g id="XMLID_6_">
		<path id="XMLID_8_" fill="#EEBC7F" d="M512.1,110.2c-2.9,2.2-4.7,6-5.2,9.6c-0.8,5.2,1.2,11.8,4.3,16c1.3,1.7,1.7,2.4,3.8,2.4
			c2.7,0,5.2-0.7,7.8-1.2c1.2-0.2,4.4-0.3,5.3-1.2c0.9-0.9,0.8-4.4,1.2-5.8c0.7-2.9,1.5-5,3.4-7.3c1.9-2.3,4.1-3.3,2.2-6.5
			c-2.1-3.5-5.3-7.4-8.7-9.7c-2.5-1.7-5.1-1.4-7.6-0.3C515.9,107.4,514.5,108.4,512.1,110.2z"/>
		<path id="XMLID_7_" fill="#E0845F" d="M515.6,133.5c0.2-5.3,0.8-11.2,3.2-16c1.3-2.7,3.1-5.2,4.7-7.7c0.6-1,1.6-2.2,2.1-3.5
			c-2.3-1.3-4.8-1.1-7.1-0.1c-2.7,1.2-4.1,2.1-6.5,3.9c-2.9,2.2-4.7,6-5.2,9.6c-0.8,5.2,1.2,11.8,4.3,16c1.3,1.7,1.7,2.4,3.8,2.4
			c0.2,0,0.3,0,0.5,0C515.6,136.6,515.5,135,515.6,133.5z"/>
	</g>
	<g id="XMLID_3_">
		<path id="XMLID_5_" fill="#EEBC7F" d="M567,185.2c3,0.8,6.2-0.1,8.6-1.8c3.4-2.4,6-7.6,6.6-12.1c0.2-1.9,0.3-2.6-0.9-4
			c-1.6-1.9-3.6-3.3-5.4-4.8c-0.8-0.7-2.8-3-3.9-3.1c-1.1-0.1-3,1.9-4,2.4c-2.1,1.1-3.8,1.7-6.2,1.7c-2.5,0-4.4-1-5,2.1
			c-0.7,3.5-1.1,8-0.3,11.7c0.5,2.7,2.3,4.4,4.4,5.6C563.1,184,564.5,184.5,567,185.2z"/>
		<path id="XMLID_4_" fill="#E0845F" d="M578.2,169.4c-3.2,2.8-6.9,5.8-11.1,6.8c-2.3,0.6-4.8,0.8-7.2,1c-0.9,0.1-2.2,0.1-3.3,0.5
			c0.6,2.4,2.3,4,4.3,5.1c2.3,1.2,3.7,1.7,6.1,2.4c3,0.8,6.2-0.1,8.6-1.8c3.4-2.4,6-7.6,6.6-12.1c0.2-1.9,0.3-2.6-0.9-4
			c-0.1-0.1-0.2-0.2-0.3-0.3C580,167.7,579.1,168.6,578.2,169.4z"/>
	</g>
</g>
<g id="XMLID_1_">
	<path id="XMLID_7635_" fill="#DC7676" d="M905.7,79.8c-2.9-2.3-3-4.5-1.3-7.4c1.8-3,4.6-5,6.5-7.8c1.7-2.5,4.8-5.3,2-8.2
		c-2.7-2.8-6.3-1.5-9.5,0.2c-1.9,1.1-3.5,2.7-4.6,4.5c-1.2,1.8-2.4,3.7-3.3,5.7c-2.4,5.2-6.7,6.9-12,6.6c-5.6-0.3-10.7,0.9-15.1,4.7
		c-4.1,3.6-8.1,7.4-11,12c-3.1,4.9-6.4,9.9-6.9,16c-0.7,9.9,6.3,21.2,15.5,25.4c1.8,0.8,3.4,1.3,2.4,3.7c-2.5,6.2-2.6,12.5-0.7,18.8
		c0.6,2.1-0.1,3.3-2.2,4c-2.8,0.9-5.3,2.3-7,4.7c-4.3,6.3-7,13.2-7.2,20.9c-0.3,11.3,6.2,19.5,13.1,27.3c4.5,5.1,10.5,7.6,17.5,7.4
		c1.8-0.2,3.6-0.1,5.3-0.5c13.7-3.2,27.9-15.8,23.7-37c-1.5-7.6-4.3-14.3-11.4-18c-6.4-3.3-12.8-6.8-20.2-7.2
		c-1.8-0.1-2.6-1.1-3.3-2.6c-2.9-6.3-0.8-12.3,1.1-18.3c0.4-1.4,1.7-1.5,3-1.5c2.9,0,5.7,0.2,8.6-0.1c5.9-0.7,11.9-1.4,15.3-7.1
		c3.1-5.1,5.7-10.5,8.5-15.7C917.8,100.4,913.7,86.1,905.7,79.8z M880.2,164.6c6.3,1.3,11.8,4.3,16.6,8.4c4.6,4,4,9.6,4.6,16.1
		c0.4,4.2-1.4,8.3-4.5,12.4c-7.4,9.5-19,7.9-26.5,0.8c-8.4-7.9-9.6-17.9-6.8-28.6C864.9,168.6,874.5,163.4,880.2,164.6z
		 M895.1,121.6c-0.4,0.4-0.9,0.7-1.3,0.9c-9.4,5.2-25.7,0.8-30.6-8.6c-2.6-5-2.9-10.6,0.2-15.3c4.9-7.4,10.3-14.5,20.2-15.7
		c6.2-0.7,11.9,0.9,16.7,4.4c4.6,3.4,4,9.2,4.6,13.8C904.6,109.8,901.1,116.3,895.1,121.6z"/>
	<path id="XMLID_7632_" fill="#DC7676" d="M769.8,152.3c0.6-11.4-0.1-22.9-0.4-34.3c-0.2-10.2-1.2-20.6-3-30.8
		c-1.8-10.3-7.2-15.8-17-17.1c-11.7-1.6-21.8,2.3-29.8,11c-2.4,2.6-1.9,6.5,0.7,8.3c3,2.1,5.5,1.4,7.8-2c4.5-6.5,11.1-8.5,18.4-8
		c5.3,0.4,8.7,4.1,9.9,9c1.5,6.1,2.7,12.3,2.5,18.6c0,1.5,0.1,3,0,4.5c-0.2,3.9-0.8,4.3-4.4,2.7c-2.5-1.1-5-2.4-7.6-2.9
		c-11.8-2.1-18.8-0.6-25.5,10.9c-3,5.1-4.4,10.8-5.3,16.7c-0.4,2.8-0.2,5.4,0.8,8c3.2,8.4,15.8,16.1,24.6,14.9
		c4.2-0.6,8.1-2.2,11.9-4.2c7.2-3.9,7.2-4,7.2,4.2c0,3,0.6,5.9,3.9,6.3c3.6,0.4,4.7-2.5,5.4-5.5
		C770.7,159.1,769.6,155.7,769.8,152.3z M756.3,143.5c-5.7,5.3-11.3,10.5-19.6,7.3c-11.3-4.3-12-6.3-8.8-18.6
		c1.7-6.7,6.9-10.1,13.6-11.2c7.1-1.2,12,2.1,15.9,7.5c1.4,2,1,4.5,0.9,6.9C758.2,138.1,759.1,140.9,756.3,143.5z"/>
	<path id="XMLID_7628_" fill="#DC7676" d="M676.5,68.5c6.5-1.8,12.1-0.6,16.6,4.7c2.4,2.8,2.6,6.4,3.7,9.8c0.6,1.9,1.6,3.3,2.9,3.8
		c1.9,0.8,3.8,0.3,5.7-0.9c2.3-1.4,3.5-6.6,1.2-10.5c-6-10.1-14.6-15.8-24.9-16.4c-10.1,0.2-17.6,3-23.6,9.2
		c-5.5,5.7-9.4,12.4-11.9,19.8c-1.6,4.7-1.8,9.9,0.5,14.4c3.7,7.2,7.5,13.9,17.9,13.7c4.1-0.1,8.4,0.3,12.6,0
		c5.4-0.5,9.6,1.2,12.4,6c1.2,2,2.7,3.8,3.8,5.8c3.8,6.9,1.4,13.2-2.2,19.3c-3.4,5.7-8.4,8.5-15.1,7.6c-4.5-0.6-8.9-1.5-12.3-4.8
		c-2.9-2.8-1.6-6.3-1.4-9.7c0.2-3-2.2-5.2-5.2-5c-3.8,0.2-7.2,5-6.5,8.8c1.8,9.8,8.4,15.4,17.2,18.5c6.5,2.3,13.5,4.6,20.2,0.9
		c8.7-4.8,14.9-12.2,16.5-21.9c1.5-8.5,0.3-9.4-2.2-17.3c-1.6-5-3.2-7.2-5.9-10.4c-2.8-3.3-5.5-4.2-9.6-5
		c-5.8-1.2-11.7-0.4-17.5-0.7c-9.1-0.4-13.4-4.9-13.4-13.9C655.9,83.3,665.2,71.6,676.5,68.5z"/>
	<path id="XMLID_7624_" fill="#DC7676" d="M836,116.3c-0.2-6.2-1.2-12.3-0.7-18.6c0.4-5-4.1-7.1-8.4-4.4c-2.5,1.5-2.4,3.7-2.5,6
		c-0.2,11.3,4,22.3,1.8,33.7c-0.4,1.9,0.5,4.8-1.6,5.5c-2.1,0.7-3.4-1.9-4.5-3.5c-5-7.5-10.9-14.3-16.6-21.2
		c-2.6-3.2-5.3-6.2-8.1-9.2c-3.7-3.9-8.7-5-11.1-1.9c-2.3,2.9-4.4,6.8-3.6,10.4c1,4.6,1.1,9.2,1.8,13.7c1.8,11.1,4.4,22.2,4.3,34.6
		c-0.1,0.8-0.2,2.7-0.4,4.6c-0.3,2.7,1.4,4,3.5,4.9c2.3,1.1,3.9-0.2,5.2-2c1.9-2.8,1.9-5.8,1.4-9c-2.1-13.7-2.2-27.7-6.1-41.2
		c-0.3-1-0.6-2.3,0.7-2.9c1-0.4,1.8,0.4,2.5,1c2.9,2.2,4.9,5.1,7.2,7.8c7.5,9.2,16.3,17.6,20,29.5c1.4,4.5,3.4,5.3,7.8,4.3
		c5.8-1.3,8.4-3.7,7.9-8.1C835.3,138.9,836.4,127.6,836,116.3z"/>
	<path id="XMLID_7623_" fill="#DC7676" d="M948.5,118.6c1.6-2.7,3.5-4.7,6.4-6.1c2.9-1.3,6-1.8,9.1-2.4c12.7-2.5,12.7-2.5,17.7,9.2
		c0.5,1.1,0.8,2.3,2.5,2.3c2-0.1,6.2-3.8,6.2-5.8c0-8.2-7.4-17.8-15.9-16.8c-4.5,0.6-8.8,1.8-13.1,2.9c-0.9,0.2-1.9,0.8-2.7-0.1
		c-0.9-0.9-0.6-2-0.2-3.1c0.8-2.2,2.7-3.4,4-5.1c1.8-2.4,3.2-5.2,1.4-7.9c-1.8-2.6-4.8-2.8-7.8-2c-1.9,0.5-2.7,1.8-3.6,3.5
		c-0.6,1.1-3.1,6.1-3.8,7.2c-1.3,1.9-4.4,8.5-7.7,14.6c-6.9,12.9-12.1,26.6-19.2,39.4c-1.1,2.4-2.9,5,0,7.3c2.6,2.2,6.5,1.6,9.1-1.3
		c2-2.2,3.7-4.7,4.9-7.5C939.6,137.5,943.2,127.7,948.5,118.6z"/>
	<path id="XMLID_6803_" fill="#DC7676" d="M982.7,66.1c7.5-0.4,13.5-4,15.9-6.2c3.2-2.9,5.3-6.5,5.6-7.1c3-6.1,3.7-10.5,1.1-17.8
		c-1.7-4.5-5.4-7.7-9.1-10.3c-6.9-4.8-15.1-6.6-23.3-3.8c-9.1,3.2-16.4,21.1-12.9,30.1C963.8,60.3,972.3,66.6,982.7,66.1z M980.7,29
		c10,0.1,17.4,6.7,17.3,15.6c0,6.2-7.2,13-13.7,12.8c-8.1-0.2-15.5-7.4-15.4-14.9C969.1,35.8,975.1,28.9,980.7,29z"/>
	<path id="XMLID_6802_" fill="#DC7676" d="M1039.5,124.6c-4-6.9-8.3-14.4-12.8-21.7c-3.7-6-7.2-12.1-10.1-18.4
		c-1.3-2.9-4.3-4.1-7.2-3.2c-3.1,0.9-5.3,4-4.4,6.5c0.5,1.4,1.4,2.8,2.2,4.1c5.3,9,12.5,17.2,16.1,26.7c3.3,8.7,10.2,16.1,13.1,25
		c0.6,1.7,2.1,3.5,4.8,3.4c2.7-0.2,4.6-1.8,5.9-3.6c1.2-1.7,0.3-3.5-0.8-4.9C1043,134.3,1041.2,129.8,1039.5,124.6z"/>
	<path id="XMLID_7641_" fill="#DC7676" d="M1101.7,144.7c0.9-22.3,1.5-46.7-6.3-74c-2.1-7.5-7.6-12.5-12.5-14.5
		c-6-2.4-12.4-1.6-18.5,0.4c-0.2,0.1-0.5,0.2-0.7,0.2c-4.1,1.4-7.3,3-10.5,5.5c-0.9,0.7-1.7,1.5-2.6,2.2c-0.1,0.1-0.3,0.3-0.4,0.4
		c-6.6,6.3-8.6,15.8-6,24.7c3,10.4,13.9,20.4,29.1,14.9c3.1-1.1,4.9-1.8,7.9-3.4c3.1-1.7,3.2-4.6,2.7-7c-0.3-1.6-2.3-3.4-4.3-3.5
		c-4.3-0.2-3.5,1.8-8,4.5c-2.5,1.5-7.7,1.9-9.5,1.3c-9.7-3.2-9.6-7.9-9.3-15c0.5-9.8,8.2-14.2,16.4-16.3c2.8-0.7,5.6-0.8,7.9-0.3
		c4.5,1,6,3.9,8.4,8.1c5.2,8.8,12.3,56.8,7,76.8c-0.8,2.8-1.3,4-4.2,2.4c-4.5-2.4-9.2-4.2-14.3-3.7c-8.1-0.7-13.7,3.1-17.8,9.5
		c-4.9,7.7-8.5,16.3-6,25.1c3,10.4,16.9,21.6,31.5,14.7c3.1-1.5,6.1-3,9.1-4.6c2.3-1.2,3.4-0.4,3.4,2.1c0,1.9-0.1,3.8,0,5.7
		c0.1,2.6,1.3,4.7,3.9,5c2.6,0.3,3.9-1.7,4.6-3.9c0.5-1.5,0.7-3.2,0.6-4.8C1103.1,179.7,1100.8,169.1,1101.7,144.7z M1092.7,175.4
		c-0.9,5.5-14.6,16.8-22.5,13.7c-8.1-3.2-10.8-6.1-10-13.8c1-9.3,7-15.5,15.2-16.5c7-0.8,11.7,2.4,15.6,7.5
		C1092.4,168.2,1093.2,172.1,1092.7,175.4z"/>
</g>
<g id="XMLID_52_">
	<path id="XMLID_50_" fill="#DC7676" stroke="#DC7676" stroke-miterlimit="10" d="M75.2,60.4C75.2,75.7,62.9,88,47.6,88
		C32.4,88,20,75.7,20,60.4s12.4-27.6,27.6-27.6C62.9,32.8,75.2,45.2,75.2,60.4"/>
	<path id="XMLID_49_" fill="#DC7676" stroke="#DC7676" stroke-miterlimit="10" d="M285.1,185H130.5c-20.4,0-37-16.6-37-37
		s16.6-37,37-37h69.9c12,0,21.8-9.8,21.8-21.8s-9.8-21.8-21.8-21.8H47.6c-4.2,0-7.6-3.4-7.6-7.6c0-4.2,3.4-7.6,7.6-7.6h152.8
		c20.4,0,37,16.6,37,37s-16.6,37-37,37h-69.9c-12,0-21.8,9.8-21.8,21.8c0,12,9.8,21.8,21.8,21.8h154.5c4.2,0,7.6,3.4,7.6,7.6
		C292.6,181.6,289.2,185,285.1,185L285.1,185z"/>
	<path id="XMLID_48_" fill="#DC7676" stroke="#DC7676" stroke-miterlimit="10" d="M257.4,177.5c0-15.3,12.4-27.6,27.6-27.6
		s27.6,12.4,27.6,27.6s-12.4,27.6-27.6,27.6S257.4,192.7,257.4,177.5"/>
</g>
<g id="XMLID_54_">
	
		<line id="XMLID_51_" fill="#DC7676" stroke="#FBAE25" stroke-width="16" stroke-linecap="round" stroke-linejoin="round" stroke-miterlimit="10" x1="334.2" y1="118.9" x2="402.5" y2="118.9"/>
	
		<line id="XMLID_53_" fill="#DC7676" stroke="#FBAE25" stroke-width="16" stroke-linecap="round" stroke-linejoin="round" stroke-miterlimit="10" x1="368.4" y1="84.8" x2="368.4" y2="153.1"/>
</g>
</svg>
